<?xml version="1.0" encoding="UTF-8"?>
<svg version="1.1" xmlns="http://www.w3.org/2000/svg" width="663" height="601">
<path d="M0 0 C218.79 0 437.58 0 663 0 C663 198.33 663 396.66 663 601 C444.21 601 225.42 601 0 601 C0 402.67 0 204.34 0 0 Z " fill="#FDFDFE" transform="translate(0,0)"/>
<path d="M0 0 C0.33 95.04 0.66 190.08 1 288 C71.785 288.495 71.785 288.495 144 289 C144 334.83385513 144 334.83385513 128.77734375 353.46484375 C127.93184246 354.53278321 127.08797385 355.60201708 126.24564743 356.67246246 C120.30971303 364.16448978 114.01072004 371.26973921 107.49435854 378.25934553 C105.93404084 379.94122867 104.39021902 381.63702101 102.84902573 383.3364296 C73.56862319 415.45251108 44.60896154 431.05374742 0.81348968 433.28327632 C-17.04042815 434.07290161 -34.83403312 433.87754455 -52.6875 433.1875 C-53.73869097 433.14710271 -54.78988194 433.10670543 -55.87292719 433.06508398 C-83.33051322 431.97584202 -110.6789923 429.92677392 -138 427 C-140.31917387 387.05945077 -142.06534298 347.12799498 -143.10653295 307.13293056 C-143.23151545 302.34974254 -143.36095601 297.56668491 -143.49316406 292.78369141 C-143.51939511 291.83199142 -143.54562615 290.88029143 -143.57265207 289.89975205 C-143.94847389 276.59854892 -144.56238838 263.32765033 -145.37347358 250.04615742 C-146.77191516 227.13630006 -147.73406262 204.25301911 -147.765625 181.296875 C-147.76696481 180.40422306 -147.76830462 179.51157112 -147.76968503 178.59186912 C-147.74065614 126.88707854 -138.98523603 88.5468706 -101.9481748 50.92942122 C-98.02557749 47.01371524 -94.01462944 43.19492459 -89.984375 39.390625 C-88.8603611 38.31901032 -87.73641013 37.24732964 -86.61252308 36.17558193 C-79.62964076 29.55493643 -72.43944561 23.25394437 -64.9569875 17.20402491 C-63.40510902 15.93893621 -61.87486352 14.64745578 -60.34533596 13.35543346 C-59.37029897 12.5497886 -58.39526197 11.74414373 -57.39067841 10.91408539 C-56.55431964 10.21422311 -55.71796088 9.51436084 -54.85625792 8.79329062 C-34.71403336 -4.6321318 -28.74859687 0 0 0 Z " fill="#0A0830" transform="translate(487,87)"/>
<path d="M0 0 C2.27202501 40.10265793 3.9836962 80.1966285 5.00440229 120.35138237 C5.12688731 125.15216448 5.25373886 129.95282189 5.38330078 134.75341797 C5.4090072 135.70863319 5.43471363 136.66384841 5.46119903 137.64800955 C5.82962525 151.00293518 6.43142261 164.32891054 7.226006 177.66500321 C8.59564974 200.6635141 9.54122278 223.63688899 9.5703125 246.6796875 C9.57210713 248.02289356 9.57210713 248.02289356 9.57393801 249.39323509 C9.5369964 301.57834877 0.82797442 340.31147184 -36.90366614 378.00503218 C-40.20858342 381.25934974 -43.57212226 384.44957808 -46.9453125 387.6328125 C-48.04327589 388.67994064 -49.14113159 389.72718172 -50.23887777 390.77453756 C-90.48474167 428.955393 -90.48474167 428.955393 -118.09480453 428.52523398 C-124.50673016 428.21086388 -130.73328541 427.37750026 -137 426 C-139.29564566 386.04211559 -141.02454028 346.09313505 -142.05546762 306.08186523 C-142.17920125 301.29739065 -142.30734731 296.5130438 -142.43823242 291.72875977 C-142.46420115 290.77679747 -142.49016989 289.82483517 -142.51692555 288.84402553 C-142.8890422 275.53716712 -143.49688829 262.25998093 -144.29973926 248.97242309 C-145.68383657 226.05448104 -146.63711498 203.16250285 -146.66796875 180.19921875 C-146.66926999 179.30652824 -146.67057123 178.41383772 -146.6719119 177.49409598 C-146.6415657 126.08843725 -138.17745085 87.74217982 -101.32781643 50.30906285 C-97.44661866 46.43475488 -93.47714331 42.65738421 -89.48828125 38.89453125 C-88.37628871 37.8349359 -87.26435809 36.77527557 -86.15249038 35.71554923 C-61.14521839 12.01563943 -36.31805032 -8.39183658 0 0 Z " fill="#0A0830" transform="translate(328,87)"/>
<path d="M0 0 C2.27202501 40.10265793 3.9836962 80.1966285 5.00440229 120.35138237 C5.12688731 125.15216448 5.25373886 129.95282189 5.38330078 134.75341797 C5.4090072 135.70863319 5.43471363 136.66384841 5.46119903 137.64800955 C5.82962525 151.00293518 6.43142261 164.32891054 7.226006 177.66500321 C8.59564974 200.6635141 9.54122278 223.63688899 9.5703125 246.6796875 C9.57210713 248.02289356 9.57210713 248.02289356 9.57393801 249.39323509 C9.5369964 301.57834877 0.82797442 340.31147184 -36.90366614 378.00503218 C-40.20858342 381.25934974 -43.57212226 384.44957808 -46.9453125 387.6328125 C-48.04327589 388.67994064 -49.14113159 389.72718172 -50.23887777 390.77453756 C-90.48474167 428.955393 -90.48474167 428.955393 -118.09480453 428.52523398 C-124.50673016 428.21086388 -130.73328541 427.37750026 -137 426 C-139.29564566 386.04211559 -141.02454028 346.09313505 -142.05546762 306.08186523 C-142.17920125 301.29739065 -142.30734731 296.5130438 -142.43823242 291.72875977 C-142.46420115 290.77679747 -142.49016989 289.82483517 -142.51692555 288.84402553 C-142.8890422 275.53716712 -143.49688829 262.25998093 -144.29973926 248.97242309 C-145.68383657 226.05448104 -146.63711498 203.16250285 -146.66796875 180.19921875 C-146.66926999 179.30652824 -146.67057123 178.41383772 -146.6719119 177.49409598 C-146.6415657 126.08843725 -138.17745085 87.74217982 -101.32781643 50.30906285 C-97.44661866 46.43475488 -93.47714331 42.65738421 -89.48828125 38.89453125 C-88.37628871 37.8349359 -87.26435809 36.77527557 -86.15249038 35.71554923 C-61.14521839 12.01563943 -36.31805032 -8.39183658 0 0 Z " fill="#0A0830" transform="translate(169,87)"/>
</svg>
